# xmcd CD database file
#
# Track frame offsets:
#	150
#	30805
#	49795
#	80732
#	101257
#	132122
#	160217
#	202605
#
# Disc length: 2997 seconds
#
# Revision: 0
# Processed by: cddbd v1.5.1PL0 Copyright (c) Steve Scherf et al.
# Submitted via: CDex 1.51
#
DISCID=520bb308
DTITLE=藤原大輔 - JAZZIC ANOMALY
DYEAR=2004
DGENRE=Jazz
TTITLE0=noman's sand
TTITLE1=autobahn
TTITLE2=blue lotus
TTITLE3=bossanoite
TTITLE4=ripple
TTITLE5=delta rock
TTITLE6=pinion tree
TTITLE7=muted rain
EXTD=YEAR: 2004
EXTT0=
EXTT1=
EXTT2=
EXTT3=
EXTT4=
EXTT5=
EXTT6=
EXTT7=
PLAYORDER=
